<mxfile modified="2019-11-08T08:54:51.645Z" host="www.draw.io" agent="Mozilla/5.0 (Windows NT 10.0; Win64; x64) AppleWebKit/537.36 (KHTML, like Gecko) Chrome/77.0.3865.120 Safari/537.36" etag="LdBFUthZQB_rsIhuBJb8" version="12.2.2" type="github" pages="1">
  <diagram id="p8VwJA1MWE8HJcfDLHrL" name="Page-1">
    <mxGraphModel dx="1673" dy="839" grid="1" gridSize="10" guides="1" tooltips="1" connect="1" arrows="1" fold="1" page="1" pageScale="1" pageWidth="850" pageHeight="1100" math="0" shadow="0">
      <root>
        <mxCell id="0"/>
        <mxCell id="1" parent="0"/>
        <mxCell id="tw_gB67iHPElR90Ke5bC-10" style="edgeStyle=orthogonalEdgeStyle;rounded=0;orthogonalLoop=1;jettySize=auto;html=1;exitX=0.5;exitY=0;exitDx=0;exitDy=0;entryX=0;entryY=0.5;entryDx=0;entryDy=0;" edge="1" parent="1" source="grZF7iGKTRO_I2X3JlcP-2" target="grZF7iGKTRO_I2X3JlcP-16">
          <mxGeometry relative="1" as="geometry"/>
        </mxCell>
        <mxCell id="tw_gB67iHPElR90Ke5bC-13" style="edgeStyle=orthogonalEdgeStyle;rounded=0;orthogonalLoop=1;jettySize=auto;html=1;exitX=1;exitY=0.5;exitDx=0;exitDy=0;entryX=0;entryY=0.5;entryDx=0;entryDy=0;" edge="1" parent="1" source="grZF7iGKTRO_I2X3JlcP-2" target="grZF7iGKTRO_I2X3JlcP-11">
          <mxGeometry relative="1" as="geometry"/>
        </mxCell>
        <mxCell id="grZF7iGKTRO_I2X3JlcP-2" value="Uncertainty&lt;br&gt;Plot data" style="shape=parallelogram;html=1;strokeWidth=2;perimeter=parallelogramPerimeter;whiteSpace=wrap;rounded=1;arcSize=12;size=0.23;fillColor=#f8cecc;strokeColor=#b85450;" parent="1" vertex="1">
          <mxGeometry x="60" y="362" width="100" height="60" as="geometry"/>
        </mxCell>
        <mxCell id="grZF7iGKTRO_I2X3JlcP-48" style="edgeStyle=orthogonalEdgeStyle;rounded=0;orthogonalLoop=1;jettySize=auto;html=1;exitX=1;exitY=0.5;exitDx=0;exitDy=0;entryX=0.5;entryY=1;entryDx=0;entryDy=0;" parent="1" source="grZF7iGKTRO_I2X3JlcP-11" target="grZF7iGKTRO_I2X3JlcP-20" edge="1">
          <mxGeometry relative="1" as="geometry"/>
        </mxCell>
        <mxCell id="tw_gB67iHPElR90Ke5bC-3" style="edgeStyle=orthogonalEdgeStyle;rounded=0;orthogonalLoop=1;jettySize=auto;html=1;exitX=1;exitY=0.5;exitDx=0;exitDy=0;entryX=0;entryY=0.5;entryDx=0;entryDy=0;" edge="1" parent="1" source="grZF7iGKTRO_I2X3JlcP-11" target="grZF7iGKTRO_I2X3JlcP-44">
          <mxGeometry relative="1" as="geometry"/>
        </mxCell>
        <mxCell id="grZF7iGKTRO_I2X3JlcP-11" value="Weights given &lt;br&gt;per plot" style="rounded=1;whiteSpace=wrap;html=1;absoluteArcSize=1;arcSize=14;strokeWidth=2;" parent="1" vertex="1">
          <mxGeometry x="230" y="357" width="100" height="70" as="geometry"/>
        </mxCell>
        <mxCell id="grZF7iGKTRO_I2X3JlcP-32" style="edgeStyle=orthogonalEdgeStyle;rounded=0;orthogonalLoop=1;jettySize=auto;html=1;exitX=0.5;exitY=1;exitDx=0;exitDy=0;entryX=0.5;entryY=0;entryDx=0;entryDy=0;" parent="1" source="grZF7iGKTRO_I2X3JlcP-16" target="grZF7iGKTRO_I2X3JlcP-17" edge="1">
          <mxGeometry relative="1" as="geometry"/>
        </mxCell>
        <mxCell id="tw_gB67iHPElR90Ke5bC-12" style="edgeStyle=orthogonalEdgeStyle;rounded=0;orthogonalLoop=1;jettySize=auto;html=1;exitX=1;exitY=0.5;exitDx=0;exitDy=0;entryX=0.5;entryY=0;entryDx=0;entryDy=0;" edge="1" parent="1" source="grZF7iGKTRO_I2X3JlcP-16" target="grZF7iGKTRO_I2X3JlcP-20">
          <mxGeometry relative="1" as="geometry"/>
        </mxCell>
        <mxCell id="grZF7iGKTRO_I2X3JlcP-16" value="Uncertainty AGB map correction" style="rounded=1;whiteSpace=wrap;html=1;absoluteArcSize=1;arcSize=14;strokeWidth=2;" parent="1" vertex="1">
          <mxGeometry x="230" y="80" width="100" height="80" as="geometry"/>
        </mxCell>
        <mxCell id="grZF7iGKTRO_I2X3JlcP-36" style="edgeStyle=orthogonalEdgeStyle;rounded=0;orthogonalLoop=1;jettySize=auto;html=1;exitX=0.5;exitY=1;exitDx=0;exitDy=0;entryX=0.5;entryY=0;entryDx=0;entryDy=0;" parent="1" source="grZF7iGKTRO_I2X3JlcP-17" target="grZF7iGKTRO_I2X3JlcP-11" edge="1">
          <mxGeometry relative="1" as="geometry"/>
        </mxCell>
        <mxCell id="grZF7iGKTRO_I2X3JlcP-17" value="error decomposition and contribution" style="rounded=1;whiteSpace=wrap;html=1;absoluteArcSize=1;arcSize=14;strokeWidth=2;" parent="1" vertex="1">
          <mxGeometry x="230" y="210" width="100" height="70" as="geometry"/>
        </mxCell>
        <mxCell id="grZF7iGKTRO_I2X3JlcP-49" style="edgeStyle=orthogonalEdgeStyle;rounded=0;orthogonalLoop=1;jettySize=auto;html=1;exitX=1;exitY=0.5;exitDx=0;exitDy=0;entryX=0;entryY=0.5;entryDx=0;entryDy=0;entryPerimeter=0;" parent="1" source="grZF7iGKTRO_I2X3JlcP-20" target="grZF7iGKTRO_I2X3JlcP-45" edge="1">
          <mxGeometry relative="1" as="geometry"/>
        </mxCell>
        <mxCell id="grZF7iGKTRO_I2X3JlcP-20" value="RF-based &lt;br&gt;Bias modelling and mapping" style="rounded=1;whiteSpace=wrap;html=1;absoluteArcSize=1;arcSize=14;strokeWidth=2;" parent="1" vertex="1">
          <mxGeometry x="380" y="200" width="100" height="100" as="geometry"/>
        </mxCell>
        <mxCell id="grZF7iGKTRO_I2X3JlcP-37" value="Uncertainty&lt;br&gt;AGB map" style="shape=parallelogram;html=1;strokeWidth=2;perimeter=parallelogramPerimeter;whiteSpace=wrap;rounded=1;arcSize=12;size=0.23;fillColor=#f8cecc;strokeColor=#b85450;" parent="1" vertex="1">
          <mxGeometry x="60" y="90" width="100" height="60" as="geometry"/>
        </mxCell>
        <mxCell id="grZF7iGKTRO_I2X3JlcP-41" style="edgeStyle=orthogonalEdgeStyle;rounded=0;orthogonalLoop=1;jettySize=auto;html=1;exitX=0.5;exitY=1;exitDx=0;exitDy=0;entryX=0.5;entryY=0;entryDx=0;entryDy=0;entryPerimeter=0;" parent="1" source="grZF7iGKTRO_I2X3JlcP-42" target="grZF7iGKTRO_I2X3JlcP-45" edge="1">
          <mxGeometry relative="1" as="geometry"/>
        </mxCell>
        <mxCell id="grZF7iGKTRO_I2X3JlcP-42" value="AGB map" style="shape=parallelogram;html=1;strokeWidth=2;perimeter=parallelogramPerimeter;whiteSpace=wrap;rounded=1;arcSize=12;size=0.23;fillColor=#dae8fc;strokeColor=#6c8ebf;" parent="1" vertex="1">
          <mxGeometry x="530" y="90" width="100" height="60" as="geometry"/>
        </mxCell>
        <mxCell id="grZF7iGKTRO_I2X3JlcP-43" style="edgeStyle=orthogonalEdgeStyle;rounded=0;orthogonalLoop=1;jettySize=auto;html=1;exitX=0.5;exitY=0;exitDx=0;exitDy=0;entryX=0.5;entryY=1;entryDx=0;entryDy=0;entryPerimeter=0;" parent="1" source="grZF7iGKTRO_I2X3JlcP-44" target="grZF7iGKTRO_I2X3JlcP-45" edge="1">
          <mxGeometry relative="1" as="geometry"/>
        </mxCell>
        <mxCell id="tw_gB67iHPElR90Ke5bC-5" style="edgeStyle=orthogonalEdgeStyle;rounded=0;orthogonalLoop=1;jettySize=auto;html=1;exitX=0.25;exitY=1;exitDx=0;exitDy=0;entryX=0.25;entryY=1;entryDx=0;entryDy=0;" edge="1" parent="1" source="grZF7iGKTRO_I2X3JlcP-44" target="grZF7iGKTRO_I2X3JlcP-2">
          <mxGeometry relative="1" as="geometry"/>
        </mxCell>
        <mxCell id="grZF7iGKTRO_I2X3JlcP-44" value="Plot data" style="shape=parallelogram;html=1;strokeWidth=2;perimeter=parallelogramPerimeter;whiteSpace=wrap;rounded=1;arcSize=12;size=0.23;fillColor=#dae8fc;strokeColor=#6c8ebf;" parent="1" vertex="1">
          <mxGeometry x="530" y="362" width="100" height="60" as="geometry"/>
        </mxCell>
        <mxCell id="tw_gB67iHPElR90Ke5bC-15" style="edgeStyle=orthogonalEdgeStyle;rounded=0;orthogonalLoop=1;jettySize=auto;html=1;exitX=1;exitY=0.5;exitDx=0;exitDy=0;exitPerimeter=0;entryX=0;entryY=0.5;entryDx=0;entryDy=0;" edge="1" parent="1" source="grZF7iGKTRO_I2X3JlcP-45" target="tw_gB67iHPElR90Ke5bC-14">
          <mxGeometry relative="1" as="geometry"/>
        </mxCell>
        <mxCell id="grZF7iGKTRO_I2X3JlcP-45" value="&lt;span style=&quot;white-space: normal&quot;&gt;Plot-Map&lt;br&gt;Validation&lt;/span&gt;" style="strokeWidth=2;html=1;shape=mxgraph.flowchart.decision;whiteSpace=wrap;" parent="1" vertex="1">
          <mxGeometry x="530" y="200" width="100" height="100" as="geometry"/>
        </mxCell>
        <mxCell id="tw_gB67iHPElR90Ke5bC-14" value="Regional / National / Biome error assessment" style="rounded=1;whiteSpace=wrap;html=1;absoluteArcSize=1;arcSize=14;strokeWidth=2;" vertex="1" parent="1">
          <mxGeometry x="690" y="200" width="100" height="100" as="geometry"/>
        </mxCell>
        <mxCell id="tw_gB67iHPElR90Ke5bC-16" style="edgeStyle=orthogonalEdgeStyle;rounded=0;orthogonalLoop=1;jettySize=auto;html=1;exitX=0.5;exitY=0;exitDx=0;exitDy=0;entryX=0;entryY=0.5;entryDx=0;entryDy=0;" edge="1" parent="1" source="tw_gB67iHPElR90Ke5bC-18" target="tw_gB67iHPElR90Ke5bC-24">
          <mxGeometry relative="1" as="geometry"/>
        </mxCell>
        <mxCell id="tw_gB67iHPElR90Ke5bC-17" style="edgeStyle=orthogonalEdgeStyle;rounded=0;orthogonalLoop=1;jettySize=auto;html=1;exitX=1;exitY=0.5;exitDx=0;exitDy=0;entryX=0;entryY=0.5;entryDx=0;entryDy=0;" edge="1" parent="1" source="tw_gB67iHPElR90Ke5bC-18" target="tw_gB67iHPElR90Ke5bC-21">
          <mxGeometry relative="1" as="geometry"/>
        </mxCell>
        <mxCell id="tw_gB67iHPElR90Ke5bC-18" value="Uncertainty&lt;br&gt;Plot data" style="shape=parallelogram;html=1;strokeWidth=2;perimeter=parallelogramPerimeter;whiteSpace=wrap;rounded=1;arcSize=12;size=0.23;fillColor=#f8cecc;strokeColor=#b85450;" vertex="1" parent="1">
          <mxGeometry x="230" y="812" width="100" height="60" as="geometry"/>
        </mxCell>
        <mxCell id="tw_gB67iHPElR90Ke5bC-19" style="edgeStyle=orthogonalEdgeStyle;rounded=0;orthogonalLoop=1;jettySize=auto;html=1;exitX=1;exitY=0.5;exitDx=0;exitDy=0;entryX=0.5;entryY=1;entryDx=0;entryDy=0;" edge="1" parent="1" source="tw_gB67iHPElR90Ke5bC-21" target="tw_gB67iHPElR90Ke5bC-28">
          <mxGeometry relative="1" as="geometry"/>
        </mxCell>
        <mxCell id="tw_gB67iHPElR90Ke5bC-21" value="Weights given &lt;br&gt;per plot" style="rounded=1;whiteSpace=wrap;html=1;absoluteArcSize=1;arcSize=14;strokeWidth=2;" vertex="1" parent="1">
          <mxGeometry x="400" y="807" width="100" height="70" as="geometry"/>
        </mxCell>
        <mxCell id="tw_gB67iHPElR90Ke5bC-22" style="edgeStyle=orthogonalEdgeStyle;rounded=0;orthogonalLoop=1;jettySize=auto;html=1;exitX=0.5;exitY=1;exitDx=0;exitDy=0;entryX=0.5;entryY=0;entryDx=0;entryDy=0;" edge="1" parent="1" source="tw_gB67iHPElR90Ke5bC-24" target="tw_gB67iHPElR90Ke5bC-26">
          <mxGeometry relative="1" as="geometry"/>
        </mxCell>
        <mxCell id="tw_gB67iHPElR90Ke5bC-39" style="edgeStyle=orthogonalEdgeStyle;rounded=0;orthogonalLoop=1;jettySize=auto;html=1;exitX=1;exitY=0.25;exitDx=0;exitDy=0;entryX=0.75;entryY=0;entryDx=0;entryDy=0;dashed=1;" edge="1" parent="1" source="tw_gB67iHPElR90Ke5bC-24" target="tw_gB67iHPElR90Ke5bC-28">
          <mxGeometry relative="1" as="geometry"/>
        </mxCell>
        <mxCell id="tw_gB67iHPElR90Ke5bC-24" value="Uncertainty AGB map correction" style="rounded=1;whiteSpace=wrap;html=1;absoluteArcSize=1;arcSize=14;strokeWidth=2;" vertex="1" parent="1">
          <mxGeometry x="400" y="530" width="100" height="80" as="geometry"/>
        </mxCell>
        <mxCell id="tw_gB67iHPElR90Ke5bC-25" style="edgeStyle=orthogonalEdgeStyle;rounded=0;orthogonalLoop=1;jettySize=auto;html=1;exitX=0.5;exitY=1;exitDx=0;exitDy=0;entryX=0.5;entryY=0;entryDx=0;entryDy=0;" edge="1" parent="1" source="tw_gB67iHPElR90Ke5bC-26" target="tw_gB67iHPElR90Ke5bC-21">
          <mxGeometry relative="1" as="geometry"/>
        </mxCell>
        <mxCell id="tw_gB67iHPElR90Ke5bC-26" value="error decomposition and contribution" style="rounded=1;whiteSpace=wrap;html=1;absoluteArcSize=1;arcSize=14;strokeWidth=2;" vertex="1" parent="1">
          <mxGeometry x="400" y="660" width="100" height="70" as="geometry"/>
        </mxCell>
        <mxCell id="tw_gB67iHPElR90Ke5bC-38" style="edgeStyle=orthogonalEdgeStyle;rounded=0;orthogonalLoop=1;jettySize=auto;html=1;exitX=0.5;exitY=0;exitDx=0;exitDy=0;entryX=1;entryY=0.5;entryDx=0;entryDy=0;dashed=1;" edge="1" parent="1" source="tw_gB67iHPElR90Ke5bC-28" target="tw_gB67iHPElR90Ke5bC-24">
          <mxGeometry relative="1" as="geometry"/>
        </mxCell>
        <mxCell id="tw_gB67iHPElR90Ke5bC-54" style="edgeStyle=orthogonalEdgeStyle;rounded=0;orthogonalLoop=1;jettySize=auto;html=1;exitX=1;exitY=0.5;exitDx=0;exitDy=0;entryX=0;entryY=0.5;entryDx=0;entryDy=0;" edge="1" parent="1" source="tw_gB67iHPElR90Ke5bC-28" target="tw_gB67iHPElR90Ke5bC-37">
          <mxGeometry relative="1" as="geometry"/>
        </mxCell>
        <mxCell id="tw_gB67iHPElR90Ke5bC-28" value="RF-based &lt;br&gt;Bias modelling and mapping" style="rounded=1;whiteSpace=wrap;html=1;absoluteArcSize=1;arcSize=14;strokeWidth=2;" vertex="1" parent="1">
          <mxGeometry x="550" y="650" width="100" height="100" as="geometry"/>
        </mxCell>
        <mxCell id="tw_gB67iHPElR90Ke5bC-29" value="Uncertainty&lt;br&gt;AGB map" style="shape=parallelogram;html=1;strokeWidth=2;perimeter=parallelogramPerimeter;whiteSpace=wrap;rounded=1;arcSize=12;size=0.23;fillColor=#f8cecc;strokeColor=#b85450;" vertex="1" parent="1">
          <mxGeometry x="230" y="540" width="100" height="60" as="geometry"/>
        </mxCell>
        <mxCell id="tw_gB67iHPElR90Ke5bC-37" value="Regional / National / Biome error assessment" style="rounded=1;whiteSpace=wrap;html=1;absoluteArcSize=1;arcSize=14;strokeWidth=2;" vertex="1" parent="1">
          <mxGeometry x="710" y="650" width="100" height="100" as="geometry"/>
        </mxCell>
        <mxCell id="tw_gB67iHPElR90Ke5bC-47" style="edgeStyle=orthogonalEdgeStyle;rounded=0;orthogonalLoop=1;jettySize=auto;html=1;exitX=0.5;exitY=1;exitDx=0;exitDy=0;entryX=0.5;entryY=0;entryDx=0;entryDy=0;entryPerimeter=0;" edge="1" parent="1" source="tw_gB67iHPElR90Ke5bC-48" target="tw_gB67iHPElR90Ke5bC-51">
          <mxGeometry relative="1" as="geometry"/>
        </mxCell>
        <mxCell id="tw_gB67iHPElR90Ke5bC-48" value="AGB map" style="shape=parallelogram;html=1;strokeWidth=2;perimeter=parallelogramPerimeter;whiteSpace=wrap;rounded=1;arcSize=12;size=0.23;fillColor=#dae8fc;strokeColor=#6c8ebf;" vertex="1" parent="1">
          <mxGeometry x="100" y="540" width="100" height="60" as="geometry"/>
        </mxCell>
        <mxCell id="tw_gB67iHPElR90Ke5bC-49" style="edgeStyle=orthogonalEdgeStyle;rounded=0;orthogonalLoop=1;jettySize=auto;html=1;exitX=0.5;exitY=0;exitDx=0;exitDy=0;entryX=0.5;entryY=1;entryDx=0;entryDy=0;entryPerimeter=0;" edge="1" parent="1" source="tw_gB67iHPElR90Ke5bC-50" target="tw_gB67iHPElR90Ke5bC-51">
          <mxGeometry relative="1" as="geometry"/>
        </mxCell>
        <mxCell id="tw_gB67iHPElR90Ke5bC-52" style="edgeStyle=orthogonalEdgeStyle;rounded=0;orthogonalLoop=1;jettySize=auto;html=1;exitX=1;exitY=0.5;exitDx=0;exitDy=0;entryX=0;entryY=0.5;entryDx=0;entryDy=0;" edge="1" parent="1" source="tw_gB67iHPElR90Ke5bC-50" target="tw_gB67iHPElR90Ke5bC-18">
          <mxGeometry relative="1" as="geometry"/>
        </mxCell>
        <mxCell id="tw_gB67iHPElR90Ke5bC-50" value="Plot data" style="shape=parallelogram;html=1;strokeWidth=2;perimeter=parallelogramPerimeter;whiteSpace=wrap;rounded=1;arcSize=12;size=0.23;fillColor=#dae8fc;strokeColor=#6c8ebf;" vertex="1" parent="1">
          <mxGeometry x="100" y="812" width="100" height="60" as="geometry"/>
        </mxCell>
        <mxCell id="tw_gB67iHPElR90Ke5bC-51" value="&lt;span style=&quot;white-space: normal&quot;&gt;Plot-Map&lt;br&gt;Validation&lt;/span&gt;" style="strokeWidth=2;html=1;shape=mxgraph.flowchart.decision;whiteSpace=wrap;" vertex="1" parent="1">
          <mxGeometry x="100" y="652" width="100" height="100" as="geometry"/>
        </mxCell>
      </root>
    </mxGraphModel>
  </diagram>
</mxfile>
